<?xml version="1.0" encoding="UTF-8" standalone="no"?>
<!DOCTYPE svg PUBLIC "-//W3C//DTD SVG 20010904//EN"
"http://www.w3.org/TR/2001/REC-SVG-20010904/DTD/svg10.dtd">
<!-- Created with Sodipodi ("http://www.sodipodi.com/") -->
<svg
   id="svg548"
   sodipodi:version="0.32"
   width="210mm"
   height="297mm"
   sodipodi:docname="cia-logo.svg"
   xmlns="http://www.w3.org/2000/svg"
   xmlns:sodipodi="http://sodipodi.sourceforge.net/DTD/sodipodi-0.dtd"
   xmlns:xlink="http://www.w3.org/1999/xlink">
  <defs
     id="defs550" />
  <sodipodi:namedview
     id="base" />
  <rect
     style="font-size:12;fill:#7f7f7f;fill-rule:evenodd;stroke-width:1pt;fill-opacity:1;"
     id="rect554"
     width="625.808167"
     height="625.808167"
     x="62.753693"
     y="205.405060" />
  <g
     id="g555"
     transform="matrix(0.834411,0.000000,0.000000,0.834411,60.16209,91.25272)"
     style="fill:#000000;fill-opacity:1;stroke:#ffffff;stroke-opacity:1;stroke-width:25.1225;stroke-dasharray:none;">
    <path
       transform="matrix(0.961257,-1.748351e-2,1.748351e-2,0.961257,-16.39256,38.05783)"
       style="font-size:12;fill:#000000;fill-rule:evenodd;stroke-width:25.1225;fill-opacity:1;stroke:#ffffff;stroke-opacity:1;stroke-dasharray:none;"
       d="M 622.45 529.948 C 622.45 673.65 480.06 848.231 390.202 845.269 C 302.565 842.38 191.884 674.82 191.884 531.118 C 191.884 387.417 266.353 277.809 404.242 277.809 C 542.131 277.809 622.45 386.247 622.45 529.948 z "
       id="path553"
       sodipodi:nodetypes="cssss" />
    <path
       style="fill:#000000;fill-rule:evenodd;stroke:#ffffff;stroke-opacity:1;stroke-width:25.1225;stroke-linejoin:miter;stroke-linecap:butt;fill-opacity:1;stroke-dasharray:none;"
       d="M 88.9215 484.903 C 83.8514 386.231 70.7865 394.128 197.457 383.923 C 217.268 382.233 194.575 197.876 216.728 167.744 C 235.55 141.148 556.353 143.093 570.5 160.731 C 604.519 201.067 577.239 382.854 589.61 382.734 C 711.269 381.611 710.641 385.017 712.542 473.202 C 505.839 478.272 141.183 482.173 88.9215 484.903 z "
       id="path554"
       transform="matrix(0.927471,1.771934e-2,-7.705584e-3,0.731122,11.30727,65.08542)"
       sodipodi:nodetypes="csssscc" />
    <path
       style="fill:#000000;fill-rule:evenodd;stroke:#ffffff;stroke-opacity:1;stroke-width:25.1225;stroke-linejoin:round;stroke-linecap:round;fill-opacity:1;stroke-dasharray:none;"
       d="M 155.613 388.961 C 317.076 394.031 574.48 402.611 640.001 404.171 C 639.611 453.312 640.391 592.545 524.169 592.545 C 418.478 591.375 426.277 434.592 424.717 434.592 C 395.467 433.422 397.806 434.592 369.726 433.422 C 369.726 431.082 356.169 585.803 260.914 583.184 C 146.253 580.064 153.273 448.242 155.613 388.961 z "
       id="path551"
       sodipodi:nodetypes="cccccsc"
       transform="matrix(0.961257,-1.748351e-2,1.748351e-2,0.961257,-5.084422,41.22739)" />
  </g>
</svg>
