<?xml version="1.0" encoding="UTF-8" standalone="no"?>
<!DOCTYPE svg PUBLIC "-//W3C//DTD SVG 20010904//EN"
"http://www.w3.org/TR/2001/REC-SVG-20010904/DTD/svg10.dtd">
<!-- Created with Sodipodi ("http://www.sodipodi.com/") -->
<svg
   id="svg548"
   sodipodi:version="0.32"
   width="210mm"
   height="297mm"
   sodipodi:docname="cia-logo-2.svg"
   xmlns="http://www.w3.org/2000/svg"
   xmlns:sodipodi="http://sodipodi.sourceforge.net/DTD/sodipodi-0.dtd"
   xmlns:inkscape="http://www.inkscape.org/namespaces/inkscape"
   xmlns:xlink="http://www.w3.org/1999/xlink"
   inkscape:version="0.38.1"
   sodipodi:docbase="/home/micah/navi-misc/cia/media">
  <defs
     id="defs550" />
  <sodipodi:namedview
     id="base"
     inkscape:zoom="1.00000000"
     inkscape:cx="351.20163"
     inkscape:cy="452.51971"
     inkscape:window-width="926"
     inkscape:window-height="1021"
     inkscape:window-x="352"
     inkscape:window-y="102" />
  <rect
     style="fill:#7f7f7f;fill-opacity:0.75000000;fill-rule:evenodd;stroke-width:3.0000000pt;"
     id="rect848"
     width="622.50000"
     height="567.86047"
     x="67.500000"
     y="206.11218" />
  <g
     id="g555"
     transform="matrix(0.648071,6.489667e-2,-6.489667e-2,0.648071,245.8240,161.4221)"
     style="fill:#000000;fill-opacity:1.0000000;stroke:#ffffff;stroke-opacity:1.0000000;stroke-width:25.1225;stroke-dasharray:none;">
    <path
       transform="matrix(0.961257,-1.748351e-2,1.748351e-2,0.961257,-16.39256,38.05783)"
       style="font-size:12;fill:#000000;fill-rule:evenodd;stroke-width:25.1225;fill-opacity:1.0000000;stroke:#ffffff;stroke-opacity:1.0000000;stroke-dasharray:none;"
       d="M 622.45 529.948 C 622.45 673.65 480.06 848.231 390.202 845.269 C 302.565 842.38 191.884 674.82 191.884 531.118 C 191.884 387.417 266.353 277.809 404.242 277.809 C 542.131 277.809 622.45 386.247 622.45 529.948 z "
       id="path553"
       sodipodi:nodetypes="cssss" />
    <path
       style="fill:#000000;fill-rule:evenodd;stroke:#ffffff;stroke-opacity:1.0000000;stroke-width:25.1225;stroke-linejoin:miter;stroke-linecap:butt;fill-opacity:1.0000000;stroke-dasharray:none;"
       d="M 88.9215 484.903 C 83.8514 386.231 70.7865 394.128 197.457 383.923 C 217.268 382.233 194.575 197.876 216.728 167.744 C 235.55 141.148 556.353 143.093 570.5 160.731 C 604.519 201.067 577.239 382.854 589.61 382.734 C 711.269 381.611 710.641 385.017 712.542 473.202 C 505.839 478.272 141.183 482.173 88.9215 484.903 z "
       id="path554"
       transform="matrix(0.927471,1.771934e-2,-7.705584e-3,0.731122,11.30727,65.08542)"
       sodipodi:nodetypes="csssscc" />
    <path
       style="fill:#000000;fill-rule:evenodd;stroke:#ffffff;stroke-opacity:1.0000000;stroke-width:25.1225;stroke-linejoin:round;stroke-linecap:round;fill-opacity:1.0000000;stroke-dasharray:none;"
       d="M 155.613 388.961 C 317.076 394.031 574.48 402.611 640.001 404.171 C 639.611 453.312 640.391 592.545 524.169 592.545 C 418.478 591.375 426.277 434.592 424.717 434.592 C 395.467 433.422 397.806 434.592 369.726 433.422 C 369.726 431.082 356.169 585.803 260.914 583.184 C 146.253 580.064 153.273 448.242 155.613 388.961 z "
       id="path551"
       sodipodi:nodetypes="cccccsc"
       transform="matrix(0.961257,-1.748351e-2,1.748351e-2,0.961257,-5.084422,41.22739)" />
  </g>
  <rect
     style="fill:#45974d;fill-opacity:0.88541669;fill-rule:evenodd;stroke-width:3.0000000pt;"
     id="rect843"
     width="323.93417"
     height="404.91772"
     x="140.67790"
     y="271.48444" />
  <g
     id="g836"
     transform="matrix(1.009882,0.000000,0.000000,1.009882,52.24920,191.8724)"
     style="fill:#000000;fill-opacity:1.0000000;">
    <text
       xml:space="preserve"
       style="fill:#000000;stroke:none;font-family:Courier New;font-style:normal;font-weight:bold;font-size:12.000000;fill-opacity:1.0000000;stroke-opacity:1;stroke-width:3pt;stroke-linejoin:miter;stroke-linecap:butt;font-stretch:normal;font-variant:normal;text-anchor:start;writing-mode:lr;"
       x="14.384939"
       y="21.077650"
       id="text830"
       sodipodi:linespacing="100%"
       transform="scale(7.325283,7.325283)"><tspan
         id="tspan831"
         style="letter-spacing:0.57444572;fill:#000000;fill-opacity:1.0000000;">CIA</tspan></text>
    <text
       xml:space="preserve"
       style="fill:#000000;stroke:none;font-family:helvetica;font-style:normal;font-weight:normal;font-size:12px;fill-opacity:1.0000000;stroke-opacity:1;stroke-width:3pt;stroke-linejoin:miter;stroke-linecap:butt;"
       x="114.86464"
       y="183.47423"
       id="text833"
       transform="scale(0.940946,0.940946)"><tspan
         id="tspan834"
         style="fill:#000000;fill-opacity:1.0000000;">Open Source Notification System</tspan></text>
  </g>
</svg>
