<?xml version="1.0" encoding="UTF-8" standalone="no"?>
<!-- Created with Inkscape (http://www.inkscape.org/) -->
<svg
   xmlns:dc="http://purl.org/dc/elements/1.1/"
   xmlns:cc="http://web.resource.org/cc/"
   xmlns:rdf="http://www.w3.org/1999/02/22-rdf-syntax-ns#"
   xmlns:svg="http://www.w3.org/2000/svg"
   xmlns="http://www.w3.org/2000/svg"
   xmlns:sodipodi="http://sodipodi.sourceforge.net/DTD/sodipodi-0.dtd"
   xmlns:inkscape="http://www.inkscape.org/namespaces/inkscape"
   width="640"
   height="480"
   id="svg2"
   sodipodi:version="0.32"
   inkscape:version="0.44"
   sodipodi:docbase="/home/micah/trunk/navi-misc/cia/django/cia/media_src"
   sodipodi:docname="diffcast.svg"
   version="1.0"
   inkscape:export-filename="/home/micah/diffcast.png"
   inkscape:export-xdpi="90"
   inkscape:export-ydpi="90">
  <defs
     id="defs4" />
  <sodipodi:namedview
     id="base"
     pagecolor="white"
     bordercolor="#666666"
     borderopacity="1.0"
     gridtolerance="10000"
     guidetolerance="10"
     objecttolerance="10"
     inkscape:pageopacity="0"
     inkscape:pageshadow="2"
     inkscape:zoom="1"
     inkscape:cx="247.02601"
     inkscape:cy="270.23097"
     inkscape:document-units="px"
     inkscape:current-layer="layer1"
     inkscape:window-width="1151"
     inkscape:window-height="825"
     inkscape:window-x="216"
     inkscape:window-y="131"
     width="640px"
     height="480px"
     showgrid="false"
     showguides="true"
     inkscape:guide-bbox="true">
    <sodipodi:guide
       orientation="horizontal"
       position="-59"
       id="guide4000" />
  </sodipodi:namedview>
  <metadata
     id="metadata7">
    <rdf:RDF>
      <cc:Work
         rdf:about="">
        <dc:format>image/svg+xml</dc:format>
        <dc:type
           rdf:resource="http://purl.org/dc/dcmitype/StillImage" />
      </cc:Work>
    </rdf:RDF>
  </metadata>
  <g
     inkscape:label="Layer 1"
     inkscape:groupmode="layer"
     id="layer1">
    <g
       id="g2032"
       transform="matrix(2.503247,0,0,2.503247,-117.57,-1138.083)">
      <path
         id="path1989"
         d="M 171.20675,479.91872 L 176.00331,479.91872 L 176.00331,494.92471 L 171.20675,494.92471 L 171.20675,479.91872"
         style="font-size:27.43952751px;font-style:normal;font-variant:normal;font-weight:bold;font-stretch:normal;text-align:start;line-height:125%;writing-mode:lr-tb;text-anchor:start;fill:black;fill-opacity:1;stroke:none;stroke-width:1px;stroke-linecap:butt;stroke-linejoin:miter;stroke-opacity:1;font-family:Bitstream Vera Sans" />
      <path
         id="path1987"
         d="M 171.20675,474.0771 L 176.00331,474.0771 L 176.00331,477.98938 L 171.20675,477.98938 L 171.20675,474.0771"
         style="font-size:27.43952751px;font-style:normal;font-variant:normal;font-weight:bold;font-stretch:normal;text-align:start;line-height:125%;writing-mode:lr-tb;text-anchor:start;fill:black;fill-opacity:1;stroke:none;stroke-width:1px;stroke-linecap:butt;stroke-linejoin:miter;stroke-opacity:1;font-family:Bitstream Vera Sans" />
    </g>
    <path
       style="font-size:27.43952751px;font-style:normal;font-variant:normal;font-weight:bold;font-stretch:normal;text-align:start;line-height:125%;writing-mode:lr-tb;text-anchor:start;fill:black;fill-opacity:1;stroke:none;stroke-width:1px;stroke-linecap:butt;stroke-linejoin:miter;stroke-opacity:1;font-family:Bitstream Vera Sans"
       d="M 357.9208,48.648528 L 357.9208,56.530199 L 351.28009,56.530199 C 349.58076,56.530251 348.39573,56.843281 347.72496,57.469297 C 347.05416,58.073054 346.71878,59.1351 346.71878,60.655496 L 346.71878,63.271543 L 356.98172,63.271543 L 356.98172,71.857532 L 346.71878,71.857532 L 346.71878,100.83523 L 334.71183,100.83523 L 334.71183,71.857532 L 328.74187,71.857532 L 328.74187,63.271543 L 334.71183,63.271543 L 334.71183,60.655496 C 334.71181,56.563793 335.85214,53.54528 338.13279,51.599979 C 340.41345,49.632408 343.9462,48.648581 348.73113,48.648528 L 357.9208,48.648528"
       id="path1985" />
    <path
       style="font-size:27.43952751px;font-style:normal;font-variant:normal;font-weight:bold;font-stretch:normal;text-align:start;line-height:125%;writing-mode:lr-tb;text-anchor:start;fill:black;fill-opacity:1;stroke:none;stroke-width:1px;stroke-linecap:butt;stroke-linejoin:miter;stroke-opacity:1;font-family:Bitstream Vera Sans"
       d="M 392.832,48.648528 L 392.832,56.530199 L 386.19129,56.530199 C 384.49197,56.530251 383.3069,56.843281 382.63616,57.469297 C 381.96536,58.073054 381.62995,59.1351 381.62997,60.655496 L 381.62997,63.271543 L 391.89291,63.271543 L 391.89291,71.857532 L 381.62997,71.857532 L 381.62997,100.83523 L 369.62301,100.83523 L 369.62301,71.857532 L 363.65306,71.857532 L 363.65306,63.271543 L 369.62301,63.271543 L 369.62301,60.655496 C 369.62301,56.563793 370.76333,53.54528 373.044,51.599979 C 375.32463,49.632408 378.85741,48.648581 383.64231,48.648528 L 392.832,48.648528"
       id="text1872" />
    <path
       style="font-size:27.43952751px;font-style:normal;font-variant:normal;font-weight:normal;font-stretch:normal;text-align:start;line-height:125%;writing-mode:lr-tb;text-anchor:start;fill:gray;fill-opacity:1;stroke:none;stroke-width:1px;stroke-linecap:butt;stroke-linejoin:miter;stroke-opacity:1;font-family:Bitstream Vera Sans"
       d="M 428.2798,64.713711 L 428.2798,70.482447 C 426.53573,69.521026 424.78054,68.80552 423.01417,68.335939 C 421.27011,67.844067 419.50371,67.5981 417.715,67.598079 C 413.71266,67.5981 410.60473,68.872582 408.39116,71.421535 C 406.17759,73.948165 405.0708,77.5033 405.0708,82.086938 C 405.0708,86.670608 406.17759,90.236909 408.39116,92.785872 C 410.60473,95.312492 413.71266,96.575787 417.715,96.575787 C 419.50371,96.575787 421.27011,96.341028 423.01417,95.871468 C 424.78054,95.379554 426.53573,94.652892 428.2798,93.69144 L 428.2798,99.393061 C 426.55809,100.198 424.76935,100.80169 422.91357,101.20416 C 421.08006,101.60663 419.12362,101.80787 417.04423,101.80787 C 411.38729,101.80787 406.89306,100.03032 403.56154,96.475173 C 400.23,92.920038 398.56424,88.123974 398.56424,82.086938 C 398.56424,75.960497 400.24119,71.142078 403.59508,67.63162 C 406.97134,64.121246 411.58852,62.366038 417.4467,62.365996 C 419.34721,62.366038 421.20305,62.567256 423.01417,62.969701 C 424.82524,63.349845 426.58044,63.931174 428.2798,64.713711"
       id="path2020" />
    <path
       style="font-size:27.43952751px;font-style:normal;font-variant:normal;font-weight:normal;font-stretch:normal;text-align:start;line-height:125%;writing-mode:lr-tb;text-anchor:start;fill:gray;fill-opacity:1;stroke:none;stroke-width:1px;stroke-linecap:butt;stroke-linejoin:miter;stroke-opacity:1;font-family:Bitstream Vera Sans"
       d="M 471.47222,92.316334 L 478.54894,92.316334 L 478.54894,100.83523 L 471.47222,100.83523 L 471.47222,92.316334"
       id="path2014" />
    <path
       style="font-size:27.43952751px;font-style:normal;font-variant:normal;font-weight:normal;font-stretch:normal;text-align:start;line-height:125%;writing-mode:lr-tb;text-anchor:start;fill:gray;fill-opacity:1;stroke:none;stroke-width:1px;stroke-linecap:butt;stroke-linejoin:miter;stroke-opacity:1;font-family:Bitstream Vera Sans"
       d="M 510.97822,64.378328 L 510.97822,70.214125 C 509.23416,69.319787 507.42306,68.648989 505.5449,68.201783 C 503.66669,67.75463 501.72144,67.531038 499.70911,67.530996 C 496.64586,67.531038 494.34285,68.000577 492.80007,68.939643 C 491.27963,69.878763 490.51941,71.28739 490.51941,73.165544 C 490.51941,74.596578 491.06722,75.725717 492.16284,76.552993 C 493.25844,77.357957 495.46082,78.129358 498.77001,78.867197 L 500.88298,79.336725 C 505.26539,80.275845 508.37335,81.606222 510.20683,83.327878 C 512.06263,85.027201 512.99053,87.408468 512.99056,90.471689 C 512.99053,93.95974 511.60425,96.721119 508.83171,98.755815 C 506.0815,100.79052 502.2916,101.80787 497.462,101.80787 C 495.44963,101.80787 493.34786,101.60663 491.15666,101.20416 C 488.9878,100.82406 486.69598,100.24271 484.28117,99.460144 L 484.28117,93.087735 C 486.5618,94.272769 488.80892,95.16716 491.02252,95.770844 C 493.23606,96.352194 495.42728,96.64287 497.59616,96.64287 C 500.50286,96.64287 502.73879,96.150956 504.30397,95.16716 C 505.86909,94.160979 506.65166,92.752352 506.65169,90.941227 C 506.65166,89.2643 506.0815,87.978631 504.94119,87.084251 C 503.82322,86.189892 501.35251,85.329043 497.52908,84.501746 L 495.38257,83.998645 C 491.55912,83.193723 488.79776,81.963981 487.09846,80.309365 C 485.39912,78.632439 484.54947,76.340619 484.54947,73.433866 C 484.54947,69.901117 485.8016,67.17328 488.30584,65.250354 C 490.81009,63.327491 494.36522,62.366038 498.97125,62.365996 C 501.25188,62.366038 503.39839,62.533735 505.41075,62.869066 C 507.42306,63.204502 509.27889,63.707582 510.97822,64.378328"
       id="path2012" />
    <path
       style="font-size:27.43952751px;font-style:normal;font-variant:normal;font-weight:normal;font-stretch:normal;text-align:start;line-height:125%;writing-mode:lr-tb;text-anchor:start;fill:gray;fill-opacity:1;stroke:none;stroke-width:1px;stroke-linecap:butt;stroke-linejoin:miter;stroke-opacity:1;font-family:Bitstream Vera Sans"
       d="M 529.4553,52.606139 L 529.4553,63.271543 L 542.16659,63.271543 L 542.16659,68.067639 L 529.4553,68.067639 L 529.4553,88.459336 C 529.45528,91.522578 529.86895,93.490201 530.69624,94.362217 C 531.5459,95.234222 533.25639,95.67023 535.82772,95.67023 L 542.16659,95.67023 L 542.16659,100.83523 L 535.82772,100.83523 C 531.06517,100.83523 527.77834,99.952037 525.96723,98.185641 C 524.15614,96.396923 523.25058,93.154818 523.25058,88.459336 L 523.25058,68.067639 L 518.72282,68.067639 L 518.72282,63.271543 L 523.25058,63.271543 L 523.25058,52.606139 L 529.4553,52.606139"
       id="text1896" />
    <rect
       style="fill:#d40000;fill-opacity:1;stroke:none;stroke-width:1;stroke-linecap:butt;stroke-linejoin:miter;stroke-miterlimit:4;stroke-dasharray:none;stroke-dashoffset:0;stroke-opacity:1"
       id="rect1912"
       width="23.074028"
       height="23.074028"
       x="229.34181"
       y="77.761192"
       ry="6.005569" />
    <path
       style="font-size:10.58799267px;font-style:normal;font-variant:normal;font-weight:bold;font-stretch:normal;text-align:start;line-height:125%;writing-mode:lr-tb;text-anchor:start;fill:white;fill-opacity:1;stroke:none;stroke-width:1px;stroke-linecap:butt;stroke-linejoin:miter;stroke-opacity:1;font-family:Bitstream Vera Sans"
       d="M 242.41887,80.989673 L 242.41887,87.771039 L 249.17438,87.771039 L 249.17438,90.825246 L 242.41887,90.825246 L 242.41887,97.606644 L 239.33877,97.606644 L 239.33877,90.825246 L 232.58329,90.825246 L 232.58329,87.771039 L 239.33877,87.771039 L 239.33877,80.989673 L 242.41887,80.989673"
       id="text1900" />
    <rect
       ry="6.005569"
       y="50.761528"
       x="229.34181"
       height="23.074028"
       width="23.074028"
       id="rect1945"
       style="fill:#d40000;fill-opacity:1;stroke:none;stroke-width:1;stroke-linecap:butt;stroke-linejoin:miter;stroke-miterlimit:4;stroke-dasharray:none;stroke-dashoffset:0;stroke-opacity:1" />
    <path
       sodipodi:nodetypes="cccc"
       id="path1947"
       d="M 249.17438,60.77135 L 249.17438,63.825558 L 232.58329,63.825558 L 232.58329,60.77135"
       style="font-size:10.58799267px;font-style:normal;font-variant:normal;font-weight:bold;font-stretch:normal;text-align:start;line-height:125%;writing-mode:lr-tb;text-anchor:start;fill:white;fill-opacity:1;stroke:none;stroke-width:1px;stroke-linecap:butt;stroke-linejoin:miter;stroke-opacity:1;font-family:Bitstream Vera Sans" />
    <path
       id="path1967"
       d="M 271.06059,60.521351 L 271.06059,91.075372 L 275.68896,91.075372 C 280.96573,91.075404 284.99042,89.767381 287.763,87.151313 C 290.5579,84.535298 291.95534,80.734217 291.95538,75.748049 C 291.95534,70.78431 290.56907,67.005583 287.79654,64.411869 C 285.02395,61.818229 280.98812,60.521372 275.68896,60.521351 L 271.06059,60.521351 M 258.14807,50.761494 L 271.7649,50.761494 C 279.36706,50.761547 285.02395,51.309356 288.73563,52.404901 C 292.46961,53.478186 295.66701,55.311665 298.3278,57.905305 C 300.67547,60.163635 302.4195,62.768494 303.55988,65.719892 C 304.70016,68.671375 305.27033,72.014083 305.27037,75.748049 C 305.27033,79.526797 304.70016,82.903079 303.55988,85.876831 C 302.4195,88.828282 300.67547,91.433141 298.3278,93.69144 C 295.64465,96.285101 292.4249,98.129777 288.66857,99.225364 C 284.91215,100.29861 279.27762,100.83523 271.7649,100.83523 L 258.14807,100.83523 L 258.14807,50.761494"
       style="font-size:27.43952751px;font-style:normal;font-variant:normal;font-weight:bold;font-stretch:normal;text-align:start;line-height:125%;writing-mode:lr-tb;text-anchor:start;fill:black;fill-opacity:1;stroke:none;stroke-width:1px;stroke-linecap:butt;stroke-linejoin:miter;stroke-opacity:1;font-family:Bitstream Vera Sans"
       sodipodi:nodetypes="cccsssccccccsssscccc" />
    <path
       id="path2008"
       d="M 453.43115,81.952772 C 448.44498,81.952793 444.99047,82.522956 443.06757,83.663261 C 441.14466,84.803619 440.18322,86.748868 440.18324,89.499059 C 440.18322,91.690275 440.89871,93.434306 442.32972,94.731142 C 443.78308,96.005623 445.75068,96.64287 448.2326,96.64287 C 451.65354,96.64287 454.39257,95.43545 456.44966,93.020652 C 458.52903,90.58349 459.56875,87.352572 459.56877,83.327878 L 459.56877,81.952772 L 453.43115,81.952772 M 465.73996,79.403808 L 465.73996,100.83523 L 459.56877,100.83523 L 459.56877,95.133608 C 458.16009,97.414271 456.4049,99.102386 454.30315,100.198 C 452.20135,101.27125 449.63003,101.80787 446.58917,101.80787 C 442.74336,101.80787 439.68014,100.73463 437.3995,98.588118 C 435.14119,96.419277 434.01206,93.523753 434.01206,89.901525 C 434.01206,85.675624 435.42068,82.489415 438.23797,80.342907 C 441.0776,78.19642 445.3035,77.123177 450.9157,77.123156 L 459.56877,77.123156 L 459.56877,76.519451 C 459.56875,73.679844 458.62965,71.488628 456.7515,69.945793 C 454.89564,68.380689 452.2796,67.5981 448.90337,67.598079 C 446.75686,67.5981 444.66625,67.855234 442.63159,68.36948 C 440.59687,68.883769 438.64043,69.655171 436.76225,70.683674 L 436.76225,64.982032 C 439.02053,64.110059 441.21174,63.461636 443.33589,63.036763 C 445.46003,62.589631 447.52826,62.366038 449.54062,62.365996 C 454.97392,62.366038 459.03213,63.774665 461.71528,66.591897 C 464.39836,69.409224 465.73993,73.679844 465.73996,79.403808"
       style="font-size:27.43952751px;font-style:normal;font-variant:normal;font-weight:normal;font-stretch:normal;text-align:start;line-height:125%;writing-mode:lr-tb;text-anchor:start;fill:gray;fill-opacity:1;stroke:none;stroke-width:1px;stroke-linecap:butt;stroke-linejoin:miter;stroke-opacity:1;font-family:Bitstream Vera Sans"
       sodipodi:nodetypes="cssssscccccccsscssccccssccsssc" />
    <g
       transform="matrix(0.547632,0,0,0.547632,157.2417,-118.0367)"
       id="g2061">
      <path
         id="path2063"
         style="font-size:27.43952751px;font-style:normal;font-variant:normal;font-weight:bold;font-stretch:normal;text-align:start;line-height:125%;writing-mode:lr-tb;text-anchor:start;fill:black;fill-opacity:1;stroke:none;stroke-width:1px;stroke-linecap:butt;stroke-linejoin:miter;stroke-opacity:1;font-family:Bitstream Vera Sans"
         d="M 171.20675,480.28964 L 174.85884,480.28964 L 174.85884,494.92471 L 171.20675,494.92471 L 171.20675,480.28964 M 171.20675,474.84375 L 174.85884,474.84375 L 174.85884,478.47358 L 171.20675,478.47358 L 171.20675,474.84375"
         sodipodi:nodetypes="cccccccccc" />
    </g>
    <path
       id="path2067"
       d="M 261,141.98944 L 261,143.5262 L 259.01689,143.5262 C 258.64513,143.52621 258.38589,143.5947 258.23914,143.73165 C 258.09239,143.86373 258.01902,144.09607 258.01902,144.42869 L 258.01902,145.001 L 260.79456,145.001 L 260.79456,146.87934 L 258.01902,146.87934 L 258.01902,153 L 256.011,153 L 256.011,146.87934 L 254.61657,146.87934 L 254.61657,145.001 L 256.011,145.001 L 256.011,144.42869 C 256.01099,143.53355 256.26046,143.0607 256.75939,142.63513 C 257.25833,142.20468 257.9428,141.98945 258.98959,141.98944 L 261,141.98944"
       style="font-size:27.43952751px;font-style:normal;font-variant:normal;font-weight:bold;font-stretch:normal;text-align:start;line-height:125%;writing-mode:lr-tb;text-anchor:start;fill:black;fill-opacity:1;stroke:none;stroke-width:1px;stroke-linecap:butt;stroke-linejoin:miter;stroke-opacity:1;font-family:Bitstream Vera Sans"
       sodipodi:nodetypes="cccsccccccccccccscc" />
    <rect
       ry="1.3013697"
       y="148"
       x="232"
       height="5"
       width="5"
       id="rect2079"
       style="fill:#d40000;fill-opacity:1;stroke:none;stroke-width:1;stroke-linecap:butt;stroke-linejoin:miter;stroke-miterlimit:4;stroke-dasharray:none;stroke-dashoffset:0;stroke-opacity:1" />
    <rect
       style="fill:#d40000;fill-opacity:1;stroke:none;stroke-width:1;stroke-linecap:butt;stroke-linejoin:miter;stroke-miterlimit:4;stroke-dasharray:none;stroke-dashoffset:0;stroke-opacity:1"
       id="rect2083"
       width="5"
       height="5"
       x="232"
       y="142"
       ry="1.3429626" />
    <path
       sodipodi:nodetypes="cccsssccccccsssscccc"
       style="font-size:27.43952751px;font-style:normal;font-variant:normal;font-weight:bold;font-stretch:normal;text-align:start;line-height:125%;writing-mode:lr-tb;text-anchor:start;fill:black;fill-opacity:1;stroke:none;stroke-width:1px;stroke-linecap:butt;stroke-linejoin:miter;stroke-opacity:1;font-family:Bitstream Vera Sans"
       d="M 241.82486,144.18059 L 241.82486,150.86485 L 242.8374,150.86485 C 243.99179,150.86486 244.87226,150.5787 245.47882,150.00639 C 246.09025,149.43409 246.39597,148.60253 246.39598,147.51171 C 246.39597,146.4258 246.0927,145.59914 245.48615,145.03172 C 244.8796,144.46431 243.99669,144.1806 242.8374,144.18059 L 241.82486,144.18059 M 239,142.04544 L 241.97894,142.04544 C 243.64205,142.04545 244.8796,142.1653 245.6916,142.40497 C 246.50847,142.63977 247.20796,143.04088 247.79006,143.60828 C 248.30366,144.10233 248.6852,144.6722 248.93468,145.31787 C 249.18413,145.96356 249.30887,146.69484 249.30888,147.51171 C 249.30887,148.33839 249.18413,149.07701 248.93468,149.72757 C 248.6852,150.37326 248.30366,150.94312 247.79006,151.43716 C 247.20307,152.00458 246.49869,152.40813 245.67693,152.64781 C 244.85514,152.88261 243.62248,153 241.97894,153 L 239,153 L 239,142.04544"
       id="path2087" />
    <path
       style="fill:white;fill-opacity:1;fill-rule:evenodd;stroke:none;stroke-width:1px;stroke-linecap:butt;stroke-linejoin:miter;stroke-opacity:1"
       d="M 233,150 L 234,150 L 234,149 L 235,149 L 235,150 L 236,150 L 236,151 L 235,151 L 235,152 L 234,152 L 234,151 L 233,151 L 233,150 z "
       id="path2135" />
    <path
       style="fill:white;fill-opacity:1;fill-rule:evenodd;stroke:none;stroke-width:1px;stroke-linecap:butt;stroke-linejoin:miter;stroke-opacity:1"
       d="M 233,145 L 233,144 L 236,144 L 236,145 L 233,145 z "
       id="path3024" />
    <path
       sodipodi:nodetypes="cccsccccccccccccscc"
       style="font-size:27.43952751px;font-style:normal;font-variant:normal;font-weight:bold;font-stretch:normal;text-align:start;line-height:125%;writing-mode:lr-tb;text-anchor:start;fill:black;fill-opacity:1;stroke:none;stroke-width:1px;stroke-linecap:butt;stroke-linejoin:miter;stroke-opacity:1;font-family:Bitstream Vera Sans"
       d="M 269,141.98944 L 269,143.5262 L 267.01689,143.5262 C 266.64513,143.52621 266.38589,143.5947 266.23914,143.73165 C 266.09239,143.86373 266.01902,144.09607 266.01902,144.42869 L 266.01902,145.001 L 268.79456,145.001 L 268.79456,146.87934 L 266.01902,146.87934 L 266.01902,153 L 264.011,153 L 264.011,146.87934 L 262.61657,146.87934 L 262.61657,145.001 L 264.011,145.001 L 264.011,144.42869 C 264.01099,143.53355 264.26046,143.0607 264.75939,142.63513 C 265.25833,142.20468 265.9428,141.98945 266.98959,141.98944 L 269,141.98944"
       id="path4002" />
    <path
       id="path4025"
       d="M 276.14889,145.32429 L 276.14889,146.51799 C 275.788,146.31905 275.42481,146.17099 275.0593,146.07382 C 274.69841,145.97204 274.3329,145.92114 273.96277,145.92114 C 273.13459,145.92114 272.49148,146.18487 272.03344,146.71231 C 271.57539,147.23513 271.34637,147.97078 271.34637,148.91925 C 271.34637,149.86772 271.57539,150.60568 272.03344,151.13312 C 272.49148,151.65594 273.13459,151.91735 273.96277,151.91735 C 274.3329,151.91735 274.69841,151.86877 275.0593,151.77161 C 275.42481,151.66982 275.788,151.51946 276.14889,151.32051 L 276.14889,152.50032 C 275.79263,152.66688 275.42249,152.7918 275.03849,152.87508 C 274.65909,152.95836 274.25425,153 273.82397,153 C 272.65341,153 271.72344,152.63218 271.03407,151.89653 C 270.34469,151.16089 270,150.16846 270,148.91925 C 270,147.65153 270.347,146.65448 271.04101,145.92808 C 271.73964,145.2017 272.69505,144.8385 273.90725,144.83849 C 274.30052,144.8385 274.68454,144.88014 275.0593,144.96341 C 275.43406,145.04207 275.79725,145.16236 276.14889,145.32429"
       style="font-size:27.43952751px;font-style:normal;font-variant:normal;font-weight:normal;font-stretch:normal;text-align:start;line-height:125%;writing-mode:lr-tb;text-anchor:start;fill:#666;fill-opacity:1;stroke:none;stroke-width:1px;stroke-linecap:butt;stroke-linejoin:miter;stroke-opacity:1;font-family:Bitstream Vera Sans" />
    <path
       id="path4027"
       d="M 285.08648,151.03596 L 286.55083,151.03596 L 286.55083,152.79874 L 285.08648,152.79874 L 285.08648,151.03596"
       style="font-size:27.43952751px;font-style:normal;font-variant:normal;font-weight:normal;font-stretch:normal;text-align:start;line-height:125%;writing-mode:lr-tb;text-anchor:start;fill:#666;fill-opacity:1;stroke:none;stroke-width:1px;stroke-linecap:butt;stroke-linejoin:miter;stroke-opacity:1;font-family:Bitstream Vera Sans" />
    <path
       id="path4029"
       d="M 293.26126,145.25489 L 293.26126,146.46247 C 292.90037,146.2774 292.52561,146.1386 292.13697,146.04606 C 291.74832,145.95353 291.3458,145.90727 290.9294,145.90726 C 290.29554,145.90727 289.81899,146.00443 289.49975,146.19874 C 289.18513,146.39307 289.02782,146.68455 289.02782,147.07319 C 289.02782,147.3693 289.14118,147.60295 289.36789,147.77414 C 289.5946,147.9407 290.05032,148.10032 290.73508,148.253 L 291.17231,148.35016 C 292.07914,148.54449 292.72225,148.81977 293.10164,149.17603 C 293.48566,149.52766 293.67766,150.0204 293.67767,150.65426 C 293.67766,151.37603 293.3908,151.94743 292.8171,152.36846 C 292.24801,152.78949 291.46378,153 290.46442,153 C 290.04801,153 289.6131,152.95836 289.15969,152.87508 C 288.7109,152.79643 288.23666,152.67613 287.73698,152.5142 L 287.73698,151.19559 C 288.20889,151.4408 288.67388,151.62587 289.13193,151.75079 C 289.58997,151.87108 290.04339,151.93123 290.49218,151.93123 C 291.09365,151.93123 291.55632,151.82944 291.88019,151.62587 C 292.20406,151.41767 292.36599,151.12619 292.366,150.75142 C 292.36599,150.40442 292.24801,150.13838 292.01205,149.95332 C 291.78071,149.76825 291.26946,149.59012 290.4783,149.41893 L 290.03413,149.31483 C 289.24297,149.14827 288.67157,148.8938 288.31994,148.55142 C 287.96831,148.20442 287.79249,147.73019 287.79249,147.12871 C 287.79249,146.3977 288.05159,145.83324 288.56978,145.43534 C 289.08797,145.03745 289.82362,144.8385 290.77672,144.83849 C 291.24864,144.8385 291.69281,144.8732 292.10921,144.94259 C 292.52561,145.012 292.90963,145.1161 293.26126,145.25489"
       style="font-size:27.43952751px;font-style:normal;font-variant:normal;font-weight:normal;font-stretch:normal;text-align:start;line-height:125%;writing-mode:lr-tb;text-anchor:start;fill:#666;fill-opacity:1;stroke:none;stroke-width:1px;stroke-linecap:butt;stroke-linejoin:miter;stroke-opacity:1;font-family:Bitstream Vera Sans" />
    <path
       id="path4031"
       d="M 297.08463,143.02019 L 297.08463,145.22713 L 299.71492,145.22713 L 299.71492,146.21956 L 297.08463,146.21956 L 297.08463,150.43912 C 297.08463,151.07298 297.17023,151.48013 297.34141,151.66057 C 297.51723,151.84101 297.87117,151.93123 298.40325,151.93123 L 299.71492,151.93123 L 299.71492,153 L 298.40325,153 C 297.41775,153 296.73763,152.81725 296.36286,152.45173 C 295.9881,152.0816 295.80072,151.41073 295.80072,150.43912 L 295.80072,146.21956 L 294.86381,146.21956 L 294.86381,145.22713 L 295.80072,145.22713 L 295.80072,143.02019 L 297.08463,143.02019"
       style="font-size:27.43952751px;font-style:normal;font-variant:normal;font-weight:normal;font-stretch:normal;text-align:start;line-height:125%;writing-mode:lr-tb;text-anchor:start;fill:#666;fill-opacity:1;stroke:none;stroke-width:1px;stroke-linecap:butt;stroke-linejoin:miter;stroke-opacity:1;font-family:Bitstream Vera Sans" />
    <path
       sodipodi:nodetypes="cssssscccccccsscssccccssccsssc"
       style="font-size:27.43952751px;font-style:normal;font-variant:normal;font-weight:normal;font-stretch:normal;text-align:start;line-height:125%;writing-mode:lr-tb;text-anchor:start;fill:#666;fill-opacity:1;stroke:none;stroke-width:1px;stroke-linecap:butt;stroke-linejoin:miter;stroke-opacity:1;font-family:Bitstream Vera Sans"
       d="M 281.35334,148.89148 C 280.32157,148.89149 279.60675,149.00947 279.20885,149.24543 C 278.81095,149.4814 278.61201,149.88392 278.61201,150.453 C 278.61201,150.90642 278.76006,151.2673 279.05617,151.53565 C 279.35691,151.79937 279.76405,151.93123 280.27763,151.93123 C 280.9855,151.93123 281.55228,151.68139 281.97794,151.1817 C 282.40821,150.6774 282.62336,150.00884 282.62336,149.17603 L 282.62336,148.89148 L 281.35334,148.89148 M 283.90034,148.36404 L 283.90034,152.79874 L 282.62336,152.79874 L 282.62336,151.61893 C 282.33187,152.09086 281.96868,152.44017 281.53377,152.66688 C 281.09886,152.88896 280.56679,153 279.93756,153 C 279.14177,153 278.50791,152.77792 278.03599,152.33376 C 277.56869,151.88497 277.33504,151.28581 277.33504,150.53628 C 277.33504,149.66183 277.62652,149.00253 278.20949,148.55836 C 278.79708,148.1142 279.67152,147.89212 280.83283,147.89212 L 282.62336,147.89212 L 282.62336,147.76719 C 282.62336,147.17961 282.42903,146.72619 282.0404,146.40694 C 281.65637,146.08308 281.11505,145.92114 280.41643,145.92114 C 279.97226,145.92114 279.53966,145.97435 279.11864,146.08076 C 278.6976,146.18718 278.29277,146.3468 277.90412,146.55963 L 277.90412,145.37981 C 278.37142,145.19938 278.82483,145.06521 279.26437,144.97729 C 279.70391,144.88477 280.13188,144.8385 280.54829,144.83849 C 281.67257,144.8385 282.51232,145.12998 283.06753,145.71294 C 283.62273,146.29591 283.90033,147.17961 283.90034,148.36404"
       id="path4043" />
    <text
       xml:space="preserve"
       style="font-size:18px;font-style:normal;font-variant:normal;font-weight:normal;font-stretch:normal;text-align:end;line-height:125%;writing-mode:lr-tb;text-anchor:end;fill:black;fill-opacity:1;stroke:none;stroke-width:1px;stroke-linecap:butt;stroke-linejoin:miter;stroke-opacity:1;font-family:Bitstream Vera Sans"
       x="208"
       y="82"
       id="text4060"
       sodipodi:linespacing="125%"><tspan
         sodipodi:role="line"
         id="tspan4062"
         x="208"
         y="82">Original version:</tspan></text>
    <text
       xml:space="preserve"
       style="font-size:18px;font-style:normal;font-variant:normal;font-weight:normal;font-stretch:normal;text-align:end;line-height:125%;writing-mode:lr-tb;text-anchor:end;fill:black;fill-opacity:1;stroke:none;stroke-width:1px;stroke-linecap:butt;stroke-linejoin:miter;stroke-opacity:1;font-family:Bitstream Vera Sans"
       x="211.66406"
       y="153"
       id="text4064"
       sodipodi:linespacing="125%"><tspan
         sodipodi:role="line"
         id="tspan4066"
         x="211.66406"
         y="153">12-pixel hinted:</tspan></text>
    <g
       id="g4068"
       transform="matrix(1.642896,0,0,1.642896,5.7251,-593.1101)">
      <path
         sodipodi:nodetypes="cccccccccc"
         d="M 171.20675,480.28964 L 174.85884,480.28964 L 174.85884,494.92471 L 171.20675,494.92471 L 171.20675,480.28964 M 171.20675,474.84375 L 174.85884,474.84375 L 174.85884,478.47358 L 171.20675,478.47358 L 171.20675,474.84375"
         style="font-size:27.43952751px;font-style:normal;font-variant:normal;font-weight:bold;font-stretch:normal;text-align:start;line-height:125%;writing-mode:lr-tb;text-anchor:start;fill:black;fill-opacity:1;stroke:none;stroke-width:1px;stroke-linecap:butt;stroke-linejoin:miter;stroke-opacity:1;font-family:Bitstream Vera Sans"
         id="path4070" />
    </g>
    <path
       sodipodi:nodetypes="cccsccccccccccccscc"
       style="font-size:27.43952751px;font-style:normal;font-variant:normal;font-weight:bold;font-stretch:normal;text-align:start;line-height:125%;writing-mode:lr-tb;text-anchor:start;fill:black;fill-opacity:1;stroke:none;stroke-width:1px;stroke-linecap:butt;stroke-linejoin:miter;stroke-opacity:1;font-family:Bitstream Vera Sans"
       d="M 317,186.96832 L 317,191.5786 L 311.05067,191.5786 C 309.93539,191.57863 309.15767,191.7841 308.71742,192.19495 C 308.27717,192.59119 308.05706,193.28821 308.05706,194.28607 L 308.05706,196.003 L 316.38368,196.003 L 316.38368,201.63802 L 308.05706,201.63802 L 308.05706,220 L 302.033,220 L 302.033,201.63802 L 297.84971,201.63802 L 297.84971,196.003 L 302.033,196.003 L 302.033,194.28607 C 302.03297,191.60065 302.78138,190.1821 304.27817,188.90539 C 305.77499,187.61404 307.8284,186.96835 310.96877,186.96832 L 317,186.96832"
       id="path4072" />
    <rect
       style="fill:#d40000;fill-opacity:1;stroke:none;stroke-width:1;stroke-linecap:butt;stroke-linejoin:miter;stroke-miterlimit:4;stroke-dasharray:none;stroke-dashoffset:0;stroke-opacity:1"
       id="rect4074"
       width="15"
       height="15"
       x="230"
       y="205"
       ry="3.904109" />
    <rect
       ry="4.0288877"
       y="187"
       x="230"
       height="15"
       width="15"
       id="rect4076"
       style="fill:#d40000;fill-opacity:1;stroke:none;stroke-width:1;stroke-linecap:butt;stroke-linejoin:miter;stroke-miterlimit:4;stroke-dasharray:none;stroke-dashoffset:0;stroke-opacity:1" />
    <path
       id="path4078"
       d="M 259.47458,193.54177 L 259.47458,213.59455 L 262.5122,213.59455 C 265.97537,213.59458 268.61678,212.7361 270.43646,211.01917 C 272.27075,209.30227 273.18791,206.80759 273.18794,203.53513 C 273.18791,200.2774 272.2781,197.79742 270.45845,196.09516 C 268.6388,194.39293 265.99007,193.5418 262.5122,193.54177 L 259.47458,193.54177 M 251,187.13632 L 259.93682,187.13632 C 264.92615,187.13635 268.6388,187.4959 271.0748,188.21491 C 273.52541,188.91931 275.62388,190.12264 277.37018,191.82484 C 278.91098,193.30699 280.0556,195.0166 280.80404,196.95361 C 281.55239,198.89068 281.92661,201.08452 281.92664,203.53513 C 281.92661,206.01517 281.55239,208.23103 280.80404,210.18271 C 280.0556,212.11978 278.91098,213.82936 277.37018,215.31148 C 275.60921,217.01374 273.49607,218.22439 271.03079,218.94343 C 268.56542,219.64783 264.86744,220 259.93682,220 L 251,220 L 251,187.13632"
       style="font-size:27.43952751px;font-style:normal;font-variant:normal;font-weight:bold;font-stretch:normal;text-align:start;line-height:125%;writing-mode:lr-tb;text-anchor:start;fill:black;fill-opacity:1;stroke:none;stroke-width:1px;stroke-linecap:butt;stroke-linejoin:miter;stroke-opacity:1;font-family:Bitstream Vera Sans"
       sodipodi:nodetypes="cccsssccccccsssscccc" />
    <path
       id="path4080"
       d="M 233,211 L 236,211 L 236,208 L 239,208 L 239,211 L 242,211 L 242,214 L 239,214 L 239,217 L 236,217 L 236,214 L 233,214 L 233,211 z "
       style="fill:white;fill-opacity:1;fill-rule:evenodd;stroke:none;stroke-width:1px;stroke-linecap:butt;stroke-linejoin:miter;stroke-opacity:1" />
    <path
       id="path4082"
       d="M 233,196 L 233,193 L 242,193 L 242,196 L 233,196 z "
       style="fill:white;fill-opacity:1;fill-rule:evenodd;stroke:none;stroke-width:1px;stroke-linecap:butt;stroke-linejoin:miter;stroke-opacity:1" />
    <path
       id="path4084"
       d="M 341,186.96832 L 341,191.5786 L 335.05067,191.5786 C 333.93539,191.57863 333.15767,191.7841 332.71742,192.19495 C 332.27717,192.59119 332.05706,193.28821 332.05706,194.28607 L 332.05706,196.003 L 340.38368,196.003 L 340.38368,201.63802 L 332.05706,201.63802 L 332.05706,220 L 326.033,220 L 326.033,201.63802 L 321.84971,201.63802 L 321.84971,196.003 L 326.033,196.003 L 326.033,194.28607 C 326.03297,191.60065 326.78138,190.1821 328.27817,188.90539 C 329.77499,187.61404 331.8284,186.96835 334.96877,186.96832 L 341,186.96832"
       style="font-size:27.43952751px;font-style:normal;font-variant:normal;font-weight:bold;font-stretch:normal;text-align:start;line-height:125%;writing-mode:lr-tb;text-anchor:start;fill:black;fill-opacity:1;stroke:none;stroke-width:1px;stroke-linecap:butt;stroke-linejoin:miter;stroke-opacity:1;font-family:Bitstream Vera Sans"
       sodipodi:nodetypes="cccsccccccccccccscc" />
    <path
       style="font-size:27.43952751px;font-style:normal;font-variant:normal;font-weight:normal;font-stretch:normal;text-align:start;line-height:125%;writing-mode:lr-tb;text-anchor:start;fill:gray;fill-opacity:1;stroke:none;stroke-width:1px;stroke-linecap:butt;stroke-linejoin:miter;stroke-opacity:1;font-family:Bitstream Vera Sans"
       d="M 362.44667,196.97287 L 362.44667,200.55397 C 361.364,199.95715 360.27443,199.51297 359.1779,199.22146 C 358.09523,198.91612 356.9987,198.76342 355.88831,198.76342 C 353.40377,198.76342 351.47444,199.55461 350.10032,201.13693 C 348.72617,202.70539 348.03911,204.91234 348.03911,207.75775 C 348.03911,210.60316 348.72617,212.81704 350.10032,214.39936 C 351.47444,215.96782 353.40377,216.75205 355.88831,216.75205 C 356.9987,216.75205 358.09523,216.60631 359.1779,216.31483 C 360.27443,216.00946 361.364,215.55838 362.44667,214.96153 L 362.44667,218.50096 C 361.37789,219.00064 360.26747,219.3754 359.11547,219.62524 C 357.97727,219.87508 356.76275,220 355.47191,220 C 351.96023,220 349.17032,218.89654 347.10221,216.68959 C 345.03407,214.48267 344,211.50538 344,207.75775 C 344,203.95459 345.041,200.96344 347.12303,198.78424 C 349.21892,196.6051 352.08515,195.5155 355.72175,195.51547 C 356.90156,195.5155 358.05362,195.64042 359.1779,195.89023 C 360.30218,196.12621 361.39175,196.48708 362.44667,196.97287"
       id="path4086" />
    <path
       style="font-size:27.43952751px;font-style:normal;font-variant:normal;font-weight:normal;font-stretch:normal;text-align:start;line-height:125%;writing-mode:lr-tb;text-anchor:start;fill:gray;fill-opacity:1;stroke:none;stroke-width:1px;stroke-linecap:butt;stroke-linejoin:miter;stroke-opacity:1;font-family:Bitstream Vera Sans"
       d="M 389.25944,214.10788 L 393.65249,214.10788 L 393.65249,219.39622 L 389.25944,219.39622 L 389.25944,214.10788"
       id="path4088" />
    <path
       style="font-size:27.43952751px;font-style:normal;font-variant:normal;font-weight:normal;font-stretch:normal;text-align:start;line-height:125%;writing-mode:lr-tb;text-anchor:start;fill:gray;fill-opacity:1;stroke:none;stroke-width:1px;stroke-linecap:butt;stroke-linejoin:miter;stroke-opacity:1;font-family:Bitstream Vera Sans"
       d="M 413.78378,196.76467 L 413.78378,200.38741 C 412.70111,199.8322 411.57683,199.4158 410.41091,199.13818 C 409.24496,198.86059 408.0374,198.72181 406.7882,198.72178 C 404.88662,198.72181 403.45697,199.01329 402.49925,199.59622 C 401.55539,200.17921 401.08346,201.05365 401.08346,202.21957 C 401.08346,203.1079 401.42354,203.80885 402.10367,204.32242 C 402.7838,204.8221 404.15096,205.30096 406.20524,205.759 L 407.51693,206.05048 C 410.23742,206.63347 412.16675,207.45931 413.30492,208.52809 C 414.45698,209.58298 415.03298,211.0612 415.03301,212.96278 C 415.03298,215.12809 414.1724,216.84229 412.4513,218.10538 C 410.74403,219.36847 408.39134,220 405.39326,220 C 404.14403,220 402.8393,219.87508 401.47907,219.62524 C 400.1327,219.38929 398.70998,219.02839 397.21094,218.5426 L 397.21094,214.58677 C 398.62667,215.3224 400.02164,215.87761 401.39579,216.25237 C 402.76991,216.61324 404.13017,216.79369 405.47654,216.79369 C 407.28095,216.79369 408.66896,216.48832 409.64057,215.87761 C 410.61218,215.25301 411.09797,214.37857 411.098,213.25426 C 411.09797,212.21326 410.74403,211.41514 410.03615,210.85996 C 409.34213,210.30475 407.80838,209.77036 405.4349,209.25679 L 404.10239,208.94449 C 401.72891,208.44481 400.01471,207.6814 398.95982,206.65426 C 397.90493,205.61326 397.37747,204.19057 397.37747,202.38613 C 397.37747,200.1931 398.15477,198.49972 399.70934,197.30602 C 401.26391,196.11235 403.47086,195.5155 406.33016,195.51547 C 407.74592,195.5155 409.07843,195.6196 410.32763,195.82777 C 411.57683,196.036 412.72889,196.3483 413.78378,196.76467"
       id="path4090" />
    <path
       style="font-size:27.43952751px;font-style:normal;font-variant:normal;font-weight:normal;font-stretch:normal;text-align:start;line-height:125%;writing-mode:lr-tb;text-anchor:start;fill:gray;fill-opacity:1;stroke:none;stroke-width:1px;stroke-linecap:butt;stroke-linejoin:miter;stroke-opacity:1;font-family:Bitstream Vera Sans"
       d="M 425.25389,190.06057 L 425.25389,196.68139 L 433.14476,196.68139 L 433.14476,199.65868 L 425.25389,199.65868 L 425.25389,212.31736 C 425.25389,214.21894 425.51069,215.44039 426.02423,215.98171 C 426.55169,216.52303 427.61351,216.79369 429.20975,216.79369 L 433.14476,216.79369 L 433.14476,220 L 429.20975,220 C 426.25325,220 424.21289,219.45175 423.08858,218.35519 C 421.9643,217.2448 421.40216,215.23219 421.40216,212.31736 L 421.40216,199.65868 L 418.59143,199.65868 L 418.59143,196.68139 L 421.40216,196.68139 L 421.40216,190.06057 L 425.25389,190.06057"
       id="path4092" />
    <path
       id="path4094"
       d="M 378.06002,207.67444 C 374.96471,207.67447 372.82025,208.02841 371.62655,208.73629 C 370.43285,209.4442 369.83603,210.65176 369.83603,212.359 C 369.83603,213.71926 370.28018,214.8019 371.16851,215.60695 C 372.07073,216.39811 373.29215,216.79369 374.83289,216.79369 C 376.9565,216.79369 378.65684,216.04417 379.93382,214.5451 C 381.22463,213.0322 381.87008,211.02652 381.87008,208.52809 L 381.87008,207.67444 L 378.06002,207.67444 M 385.70102,206.09212 L 385.70102,219.39622 L 381.87008,219.39622 L 381.87008,215.85679 C 380.99561,217.27258 379.90604,218.32051 378.60131,219.00064 C 377.29658,219.66688 375.70037,220 373.81268,220 C 371.42531,220 369.52373,219.33376 368.10797,218.00128 C 366.70607,216.65491 366.00512,214.85743 366.00512,212.60884 C 366.00512,209.98549 366.87956,208.00759 368.62847,206.67508 C 370.39124,205.3426 373.01456,204.67636 376.49849,204.67636 L 381.87008,204.67636 L 381.87008,204.30157 C 381.87008,202.53883 381.28709,201.17857 380.1212,200.22082 C 378.96911,199.24924 377.34515,198.76342 375.24929,198.76342 C 373.91678,198.76342 372.61898,198.92305 371.35592,199.24228 C 370.0928,199.56154 368.87831,200.0404 367.71236,200.67889 L 367.71236,197.13943 C 369.11426,196.59814 370.47449,196.19563 371.79311,195.93187 C 373.11173,195.65431 374.39564,195.5155 375.64487,195.51547 C 379.01771,195.5155 381.53696,196.38994 383.20259,198.13882 C 384.86819,199.88773 385.70099,202.53883 385.70102,206.09212"
       style="font-size:27.43952751px;font-style:normal;font-variant:normal;font-weight:normal;font-stretch:normal;text-align:start;line-height:125%;writing-mode:lr-tb;text-anchor:start;fill:gray;fill-opacity:1;stroke:none;stroke-width:1px;stroke-linecap:butt;stroke-linejoin:miter;stroke-opacity:1;font-family:Bitstream Vera Sans"
       sodipodi:nodetypes="cssssscccccccsscssccccssccsssc" />
    <text
       sodipodi:linespacing="125%"
       id="text4096"
       y="208"
       x="211.66406"
       style="font-size:18px;font-style:normal;font-variant:normal;font-weight:normal;font-stretch:normal;text-align:end;line-height:125%;writing-mode:lr-tb;text-anchor:end;fill:black;fill-opacity:1;stroke:none;stroke-width:1px;stroke-linecap:butt;stroke-linejoin:miter;stroke-opacity:1;font-family:Bitstream Vera Sans"
       xml:space="preserve"><tspan
         y="208"
         x="211.66406"
         id="tspan4098"
         sodipodi:role="line">24-pixel hinted:</tspan></text>
  </g>
</svg>
