<?xml version="1.0" encoding="UTF-8" standalone="no"?>
<!-- Created with Inkscape (http://www.inkscape.org/) -->
<svg
   xmlns:dc="http://purl.org/dc/elements/1.1/"
   xmlns:cc="http://web.resource.org/cc/"
   xmlns:rdf="http://www.w3.org/1999/02/22-rdf-syntax-ns#"
   xmlns:svg="http://www.w3.org/2000/svg"
   xmlns="http://www.w3.org/2000/svg"
   xmlns:xlink="http://www.w3.org/1999/xlink"
   xmlns:sodipodi="http://sodipodi.sourceforge.net/DTD/sodipodi-0.dtd"
   xmlns:inkscape="http://www.inkscape.org/namespaces/inkscape"
   width="16"
   height="16"
   id="svg2"
   sodipodi:version="0.32"
   inkscape:version="0.44"
   version="1.0"
   sodipodi:docbase="/home/micah/trunk/navi-misc/cia/media-src/img"
   sodipodi:docname="person-color.svg">
  <defs
     id="defs4">
    <linearGradient
       id="linearGradient7696">
      <stop
         id="stop7698"
         offset="0"
         style="stop-color:#e4c4b1;stop-opacity:0.74226803;" />
      <stop
         id="stop7700"
         offset="1"
         style="stop-color:#bd9c74;stop-opacity:0;" />
    </linearGradient>
    <linearGradient
       id="linearGradient7638">
      <stop
         style="stop-color:#e1d2bf;stop-opacity:1;"
         offset="0"
         id="stop7640" />
      <stop
         style="stop-color:#bd9c74;stop-opacity:0;"
         offset="1"
         id="stop7642" />
    </linearGradient>
    <radialGradient
       inkscape:collect="always"
       xlink:href="#linearGradient7696"
       id="radialGradient7797"
       gradientUnits="userSpaceOnUse"
       gradientTransform="matrix(0.188699,-0.202455,0.443347,0.413229,2.483324,21.40644)"
       cx="53.539162"
       cy="0.29240236"
       fx="53.539162"
       fy="0.29240236"
       r="6.71875" />
    <radialGradient
       inkscape:collect="always"
       xlink:href="#linearGradient7696"
       id="radialGradient7800"
       gradientUnits="userSpaceOnUse"
       gradientTransform="matrix(0.352563,4.20446e-2,-0.114141,0.957076,-1.590069,3.890118)"
       cx="23.999046"
       cy="8.0339975"
       fx="23.999046"
       fy="8.0339975"
       r="6.71875" />
    <radialGradient
       inkscape:collect="always"
       xlink:href="#linearGradient7638"
       id="radialGradient7809"
       gradientUnits="userSpaceOnUse"
       gradientTransform="matrix(0.520924,0.54689,-0.581318,0.553718,4.094306,-0.927835)"
       cx="4.6107988"
       cy="-0.58802414"
       fx="4.6107988"
       fy="-0.58802414"
       r="6.71875" />
    <radialGradient
       inkscape:collect="always"
       xlink:href="#linearGradient7696"
       id="radialGradient7811"
       gradientUnits="userSpaceOnUse"
       gradientTransform="matrix(0.254496,0.23379,-0.338612,0.3686,5.039621,4.72004)"
       cx="2.0543067"
       cy="8.8929462"
       fx="2.0543067"
       fy="8.8929462"
       r="6.71875" />
  </defs>
  <sodipodi:namedview
     id="base"
     pagecolor="white"
     bordercolor="#666666"
     borderopacity="1.0"
     gridtolerance="10000"
     guidetolerance="10"
     objecttolerance="10"
     inkscape:pageopacity="1"
     inkscape:pageshadow="2"
     inkscape:zoom="22.627417"
     inkscape:cx="8.5060031"
     inkscape:cy="4.7774501"
     inkscape:document-units="px"
     inkscape:current-layer="layer1"
     width="16px"
     height="16px"
     showgrid="false"
     inkscape:window-width="1400"
     inkscape:window-height="979"
     inkscape:window-x="0"
     inkscape:window-y="25" />
  <metadata
     id="metadata7">
    <rdf:RDF>
      <cc:Work
         rdf:about="">
        <dc:format>image/svg+xml</dc:format>
        <dc:type
           rdf:resource="http://purl.org/dc/dcmitype/StillImage" />
      </cc:Work>
    </rdf:RDF>
  </metadata>
  <g
     inkscape:label="Layer 1"
     inkscape:groupmode="layer"
     id="layer1">
    <path
       style="fill:black;fill-opacity:1;fill-rule:evenodd;stroke:none;stroke-width:0.99999976px;stroke-linecap:butt;stroke-linejoin:miter;stroke-opacity:1"
       d="M 7.999999,0.23437504 C 6.2598929,0.23437504 4.8437491,1.6505188 4.8437491,3.3906249 C 4.8437491,5.1307309 6.2598928,6.5468747 7.999999,6.5468749 C 9.7401052,6.5468749 11.156251,5.1307309 11.156251,3.3906249 C 11.156251,1.6505189 9.7401052,0.23437504 7.999999,0.23437504 z M 4.4687491,6.3593749 C 2.100806,6.8196621 1.3397959,9.1012416 0.78124902,10.265625 C 0.42209812,11.014336 2.00795,12.095753 2.4999989,12.078125 C 2.609001,12.07422 4.0441419,9.4708076 5.5312491,10.296875 C 5.3498951,11.982405 4.775103,14.080094 4.5937491,15.765625 L 7.9374989,15.609375 L 8.0624989,15.609375 L 11.406251,15.765625 C 11.224897,14.080094 10.650104,11.982405 10.46875,10.296875 C 11.955857,9.4708076 13.390998,12.07422 13.5,12.078125 C 13.992049,12.095753 15.577902,11.014336 15.218751,10.265625 C 14.660203,9.1012416 13.899193,6.8196621 11.531251,6.3593749 C 10.82883,7.3289926 9.4570212,7.9472256 8.1562489,8.0156246 C 8.1359988,8.0166896 8.1139578,8.0148246 8.0937489,8.0156246 C 8.013545,8.0156246 7.9247494,8.0198846 7.8437489,8.0156246 C 6.542977,7.9472256 5.1711686,7.3289926 4.4687491,6.3593749 z "
       id="path2762" />
    <path
       id="path7813"
       d="M 7.9999999,0.82812556 C 6.5584864,0.82812556 5.4062499,1.9558497 5.4062499,3.3906255 C 5.4062501,4.8254013 6.5652238,5.9843753 7.9999999,5.9843755 C 9.4347762,5.9843754 10.59375,4.8254013 10.59375,3.3906255 C 10.59375,1.9558497 9.4415137,0.82812556 7.9999999,0.82812556 z M 11.624999,7.0156255 C 10.754946,7.9413547 9.4802492,8.5101484 8.1875,8.5781254 C 8.1114669,8.5821224 8.0945133,8.5793324 8.125,8.5781254 C 8.1145853,8.5784144 8.1041647,8.5784144 8.09375,8.5781254 C 8.0334775,8.5781254 7.9346932,8.5845524 7.8124999,8.5781254 C 6.5147468,8.5098844 5.1852008,7.98762 4.3124999,7.0468755 C 2.4847338,7.5617847 1.8472757,9.3356514 1.2812499,10.515625 C 1.284163,10.509552 1.2870807,10.498883 1.3437499,10.609375 C 1.4004191,10.719867 1.5175013,10.898003 1.6874999,11.046875 C 1.8574987,11.195747 2.0501818,11.334038 2.21875,11.421875 C 2.2810971,11.454363 2.262925,11.437304 2.3125,11.453125 C 2.3372551,11.419883 2.3465054,11.397034 2.375,11.359375 C 2.5556973,11.120564 2.7808788,10.787143 3.09375,10.484375 C 3.4066212,10.181607 3.7894452,9.9011099 4.2499999,9.7343749 C 4.7105546,9.5676399 5.298755,9.5427469 5.8124999,9.8281249 C 6.0120317,9.9408739 6.12327,10.16335 6.0937499,10.390625 C 5.9270577,11.939888 5.5087122,13.670505 5.2812499,15.171874 L 7.9062499,15.078124 C 7.9166646,15.077835 7.9270853,15.077835 7.9374999,15.078124 L 8.0625,15.078124 C 8.0729147,15.077835 8.0833353,15.077835 8.09375,15.078124 L 10.71875,15.171874 C 10.491288,13.670505 10.072942,11.939888 9.90625,10.390625 C 9.87673,10.16335 9.9879682,9.9408739 10.1875,9.8281249 C 10.701245,9.5427469 11.289444,9.5676399 11.749999,9.7343749 C 12.210554,9.9011099 12.593379,10.181607 12.90625,10.484375 C 13.219121,10.787143 13.444303,11.120564 13.625,11.359375 C 13.653495,11.397034 13.662745,11.419883 13.6875,11.453125 C 13.737075,11.437304 13.718903,11.454363 13.78125,11.421875 C 13.949818,11.334038 14.142501,11.195747 14.3125,11.046875 C 14.482499,10.898003 14.599581,10.719867 14.65625,10.609375 C 14.712919,10.498883 14.715837,10.509552 14.71875,10.515625 C 14.144901,9.3193444 13.495905,7.5086504 11.624999,7.0156255 z "
       style="fill:#392f24;fill-opacity:1;fill-rule:evenodd;stroke:none;stroke-width:0.99999976px;stroke-linecap:butt;stroke-linejoin:miter;stroke-opacity:1" />
    <path
       style="fill:url(#radialGradient7809);fill-opacity:1;fill-rule:evenodd;stroke:none;stroke-width:0.99999976px;stroke-linecap:butt;stroke-linejoin:miter;stroke-opacity:1"
       d="M 8,0.82812477 C 6.5584865,0.82812477 5.40625,1.9558489 5.40625,3.3906248 C 5.4062502,4.8254006 6.5652239,5.9843746 8,5.9843748 C 9.4347762,5.9843747 10.59375,4.8254006 10.59375,3.3906248 C 10.59375,1.9558489 9.4415137,0.82812477 8,0.82812477 z M 11.625,7.0156248 C 10.754946,7.941354 9.4802492,8.5101477 8.1875,8.5781248 C 8.1114669,8.5821221 8.0945133,8.5793317 8.125,8.5781248 C 8.1145853,8.578414 8.1041647,8.578414 8.09375,8.5781248 C 8.0334775,8.5781245 7.9346932,8.5845512 7.8125,8.5781248 C 6.5147469,8.5098841 5.1852009,7.9876193 4.3125,7.0468748 C 2.4847338,7.561784 1.8472757,9.3356511 1.28125,10.515625 C 1.284163,10.509552 1.2870808,10.498883 1.34375,10.609375 C 1.4004192,10.719867 1.5175013,10.898003 1.6875,11.046875 C 1.8574987,11.195747 2.0501819,11.334038 2.21875,11.421875 C 2.2810971,11.454363 2.262925,11.437304 2.3125,11.453125 C 2.3372551,11.419883 2.3465054,11.397034 2.375,11.359375 C 2.5556973,11.120564 2.7808788,10.787143 3.09375,10.484375 C 3.4066212,10.181607 3.7894453,9.9011101 4.25,9.7343751 C 4.7105547,9.5676391 5.2987551,9.5427461 5.8125,9.8281251 C 6.0120318,9.9408731 6.12327,10.16335 6.09375,10.390625 C 5.9270577,11.939889 5.5087123,13.670506 5.28125,15.171875 L 7.90625,15.078125 C 7.9166647,15.077836 7.9270853,15.077836 7.9375,15.078125 L 8.0625,15.078125 C 8.0729147,15.077836 8.0833353,15.077836 8.09375,15.078125 L 10.71875,15.171875 C 10.491288,13.670506 10.072942,11.939889 9.90625,10.390625 C 9.87673,10.16335 9.9879682,9.9408731 10.1875,9.8281251 C 10.701245,9.5427461 11.289445,9.5676391 11.75,9.7343751 C 12.210555,9.9011101 12.593379,10.181607 12.90625,10.484375 C 13.219121,10.787143 13.444303,11.120564 13.625,11.359375 C 13.653495,11.397034 13.662745,11.419883 13.6875,11.453125 C 13.737075,11.437304 13.718903,11.454363 13.78125,11.421875 C 13.949818,11.334038 14.142501,11.195747 14.3125,11.046875 C 14.482499,10.898003 14.599581,10.719867 14.65625,10.609375 C 14.712919,10.498883 14.715837,10.509552 14.71875,10.515625 C 14.144901,9.3193441 13.495905,7.5086497 11.625,7.0156248 z "
       id="path6746" />
    <path
       style="fill:url(#radialGradient7811);fill-opacity:1;fill-rule:evenodd;stroke:none;stroke-width:0.99999976px;stroke-linecap:butt;stroke-linejoin:miter;stroke-opacity:1"
       d="M 8,0.82812465 C 6.5584865,0.82812465 5.40625,1.9558488 5.40625,3.3906245 C 5.4062502,4.8254005 6.5652239,5.9843745 8,5.9843745 C 9.4347762,5.9843745 10.59375,4.8254005 10.59375,3.3906245 C 10.59375,1.9558488 9.4415137,0.82812465 8,0.82812465 z M 11.625,7.0156245 C 10.754946,7.9413535 9.4802492,8.5101475 8.1875,8.5781245 C 8.1114669,8.5821225 8.0945133,8.5793315 8.125,8.5781245 C 8.1145853,8.5784135 8.1041647,8.5784135 8.09375,8.5781245 C 8.0334775,8.5781245 7.9346932,8.5845515 7.8125,8.5781245 C 6.5147469,8.5098845 5.1852009,7.9876195 4.3125,7.0468745 C 2.4847338,7.5617835 1.8472757,9.3356505 1.28125,10.515625 C 1.284163,10.509552 1.2870808,10.498883 1.34375,10.609375 C 1.4004192,10.719867 1.5175013,10.898003 1.6875,11.046875 C 1.8574987,11.195747 2.0501819,11.334038 2.21875,11.421875 C 2.2810971,11.454363 2.262925,11.437304 2.3125,11.453125 C 2.3372551,11.419883 2.3465054,11.397034 2.375,11.359375 C 2.5556973,11.120564 2.7808788,10.787143 3.09375,10.484375 C 3.4066212,10.181607 3.7894453,9.9011095 4.25,9.7343745 C 4.7105547,9.5676395 5.2987551,9.5427465 5.8125,9.8281245 C 6.0120318,9.9408735 6.12327,10.16335 6.09375,10.390625 C 5.9270577,11.939889 5.5087123,13.670506 5.28125,15.171875 L 7.90625,15.078125 C 7.9166647,15.077836 7.9270853,15.077836 7.9375,15.078125 L 8.0625,15.078125 C 8.0729147,15.077836 8.0833353,15.077836 8.09375,15.078125 L 10.71875,15.171875 C 10.491288,13.670506 10.072942,11.939889 9.90625,10.390625 C 9.87673,10.16335 9.9879682,9.9408735 10.1875,9.8281245 C 10.701245,9.5427465 11.289445,9.5676395 11.75,9.7343745 C 12.210555,9.9011095 12.593379,10.181607 12.90625,10.484375 C 13.219121,10.787143 13.444303,11.120564 13.625,11.359375 C 13.653495,11.397034 13.662745,11.419883 13.6875,11.453125 C 13.737075,11.437304 13.718903,11.454363 13.78125,11.421875 C 13.949818,11.334038 14.142501,11.195747 14.3125,11.046875 C 14.482499,10.898003 14.599581,10.719867 14.65625,10.609375 C 14.712919,10.498883 14.715837,10.509552 14.71875,10.515625 C 14.144901,9.3193435 13.495905,7.5086495 11.625,7.0156245 z "
       id="path7692" />
    <path
       style="fill:url(#radialGradient7800);fill-opacity:1;fill-rule:evenodd;stroke:none;stroke-width:0.99999976px;stroke-linecap:butt;stroke-linejoin:miter;stroke-opacity:1"
       d="M 7.9999999,0.82812499 C 6.5584864,0.82812499 5.4062499,1.9558491 5.4062499,3.390625 C 5.4062501,4.8254009 6.5652238,5.9843749 7.9999999,5.9843749 C 9.4347761,5.9843749 10.59375,4.8254009 10.59375,3.390625 C 10.59375,1.9558491 9.4415136,0.82812499 7.9999999,0.82812499 z M 11.625,7.0156249 C 10.754946,7.9413539 9.4802491,8.5101479 8.1874999,8.5781249 C 8.1114668,8.5821219 8.0945132,8.5793319 8.1249999,8.5781249 C 8.1145852,8.5784139 8.1041646,8.5784139 8.0937499,8.5781249 C 8.0334774,8.5781249 7.9346931,8.5845509 7.8124999,8.5781249 C 6.5147468,8.5098839 5.1852008,7.9876199 4.3124999,7.0468749 C 2.4847338,7.5617839 1.8472757,9.3356509 1.28125,10.515625 C 1.284163,10.509552 1.2870808,10.498883 1.34375,10.609375 C 1.4004192,10.719867 1.5175013,10.898003 1.6875,11.046875 C 1.8574987,11.195747 2.0501819,11.334038 2.21875,11.421875 C 2.2810971,11.454363 2.262925,11.437304 2.3125,11.453125 C 2.3372551,11.419883 2.3465054,11.397034 2.375,11.359375 C 2.5556972,11.120564 2.7808787,10.787143 3.0937499,10.484375 C 3.4066211,10.181607 3.7894452,9.9011099 4.2499999,9.7343749 C 4.7105546,9.5676399 5.298755,9.5427469 5.8124999,9.8281249 C 6.0120317,9.9408739 6.1232699,10.16335 6.0937499,10.390625 C 5.9270576,11.939889 5.5087122,13.670506 5.2812499,15.171875 L 7.9062499,15.078125 C 7.9166646,15.077836 7.9270852,15.077836 7.9374999,15.078125 L 8.0624999,15.078125 C 8.0729146,15.077836 8.0833352,15.077836 8.0937499,15.078125 L 10.71875,15.171875 C 10.491288,13.670506 10.072942,11.939889 9.9062499,10.390625 C 9.8767299,10.16335 9.9879681,9.9408739 10.1875,9.8281249 C 10.701245,9.5427469 11.289445,9.5676399 11.75,9.7343749 C 12.210555,9.9011099 12.593379,10.181607 12.90625,10.484375 C 13.219121,10.787143 13.444303,11.120564 13.625,11.359375 C 13.653495,11.397034 13.662745,11.419883 13.6875,11.453125 C 13.737075,11.437304 13.718903,11.454363 13.78125,11.421875 C 13.949818,11.334038 14.142501,11.195747 14.3125,11.046875 C 14.482499,10.898003 14.599581,10.719867 14.65625,10.609375 C 14.712919,10.498883 14.715837,10.509552 14.71875,10.515625 C 14.144901,9.3193439 13.495905,7.5086499 11.625,7.0156249 z "
       id="path7702" />
    <path
       style="fill:url(#radialGradient7797);fill-opacity:1;fill-rule:evenodd;stroke:none;stroke-width:0.99999976px;stroke-linecap:butt;stroke-linejoin:miter;stroke-opacity:1"
       d="M 8.0000001,0.8281249 C 6.5584866,0.8281249 5.4062501,1.9558485 5.4062501,3.3906245 C 5.4062504,4.8254005 6.565224,5.9843745 8.0000001,5.9843745 C 9.4347763,5.9843745 10.59375,4.8254005 10.59375,3.3906245 C 10.59375,1.9558485 9.4415138,0.8281249 8.0000001,0.8281249 z M 11.625,7.0156245 C 10.754946,7.9413545 9.4802493,8.5101485 8.1875001,8.5781255 C 8.111467,8.5821225 8.0945134,8.5793325 8.1250001,8.5781255 C 8.1145854,8.5784145 8.1041649,8.5784145 8.0937501,8.5781255 C 8.0334777,8.5781255 7.9346933,8.5845525 7.8125001,8.5781255 C 6.5147471,8.5098845 5.185201,7.9876195 4.3125001,7.0468745 C 2.4847339,7.5617845 1.8472759,9.3356515 1.2812502,10.515625 C 1.2841632,10.509552 1.287081,10.498883 1.3437502,10.609375 C 1.4004194,10.719867 1.5175015,10.898003 1.6875002,11.046875 C 1.8574989,11.195747 2.0501821,11.334038 2.2187501,11.421875 C 2.2810972,11.454363 2.2629251,11.437304 2.3125001,11.453125 C 2.3372552,11.419883 2.3465055,11.397034 2.3750001,11.359375 C 2.5556974,11.120564 2.7808789,10.787143 3.0937501,10.484375 C 3.4066213,10.181607 3.7894454,9.9011105 4.2500001,9.7343755 C 4.7105548,9.5676405 5.2987552,9.5427475 5.8125001,9.8281255 C 6.0120319,9.9408745 6.1232701,10.16335 6.0937501,10.390625 C 5.9270579,11.939889 5.5087124,13.670506 5.2812501,15.171875 L 7.9062501,15.078125 C 7.9166649,15.077836 7.9270854,15.077836 7.9375001,15.078125 L 8.0625001,15.078125 C 8.0729149,15.077836 8.0833354,15.077836 8.0937501,15.078125 L 10.71875,15.171875 C 10.491288,13.670506 10.072942,11.939889 9.9062501,10.390625 C 9.8767302,10.16335 9.9879684,9.9408745 10.1875,9.8281255 C 10.701245,9.5427475 11.289445,9.5676405 11.75,9.7343755 C 12.210555,9.9011105 12.593379,10.181607 12.90625,10.484375 C 13.219121,10.787143 13.444303,11.120564 13.625,11.359375 C 13.653495,11.397034 13.662745,11.419883 13.6875,11.453125 C 13.737075,11.437304 13.718903,11.454363 13.78125,11.421875 C 13.949818,11.334038 14.142501,11.195747 14.3125,11.046875 C 14.482499,10.898003 14.599581,10.719867 14.65625,10.609375 C 14.712919,10.498883 14.715837,10.509552 14.71875,10.515625 C 14.144901,9.3193445 13.495905,7.5086495 11.625,7.0156245 z "
       id="path7706" />
  </g>
</svg>
