<?xml version="1.0" encoding="UTF-8" standalone="no"?>
<!-- Created with Inkscape (http://www.inkscape.org/) -->
<svg
   xmlns:dc="http://purl.org/dc/elements/1.1/"
   xmlns:cc="http://web.resource.org/cc/"
   xmlns:rdf="http://www.w3.org/1999/02/22-rdf-syntax-ns#"
   xmlns:svg="http://www.w3.org/2000/svg"
   xmlns="http://www.w3.org/2000/svg"
   xmlns:xlink="http://www.w3.org/1999/xlink"
   xmlns:sodipodi="http://sodipodi.sourceforge.net/DTD/sodipodi-0.dtd"
   xmlns:inkscape="http://www.inkscape.org/namespaces/inkscape"
   width="16"
   height="16"
   id="svg2"
   sodipodi:version="0.32"
   inkscape:version="0.44"
   version="1.0"
   sodipodi:docbase="/home/micah/cia/media-src/img"
   sodipodi:docname="person.svg">
  <defs
     id="defs4" />
  <sodipodi:namedview
     id="base"
     pagecolor="white"
     bordercolor="#666666"
     borderopacity="1.0"
     gridtolerance="10000"
     guidetolerance="10"
     objecttolerance="10"
     inkscape:pageopacity="1"
     inkscape:pageshadow="2"
     inkscape:zoom="22.627417"
     inkscape:cx="8.5060031"
     inkscape:cy="4.7774501"
     inkscape:document-units="px"
     inkscape:current-layer="layer1"
     width="16px"
     height="16px"
     showgrid="false"
     inkscape:window-width="1400"
     inkscape:window-height="979"
     inkscape:window-x="0"
     inkscape:window-y="25" />
  <metadata
     id="metadata7">
    <rdf:RDF>
      <cc:Work
         rdf:about="">
        <dc:format>image/svg+xml</dc:format>
        <dc:type
           rdf:resource="http://purl.org/dc/dcmitype/StillImage" />
      </cc:Work>
    </rdf:RDF>
  </metadata>
  <g
     inkscape:label="Layer 1"
     inkscape:groupmode="layer"
     id="layer1">
    <g
       id="g2767"
       transform="matrix(1.02412,0,0,1.02412,-0.274034,-0.110881)"
       style="opacity:1">
      <path
         style="fill-opacity:1;fill-rule:evenodd;stroke:none;stroke-width:0.99999976px;stroke-linecap:butt;stroke-linejoin:miter;stroke-opacity:1"
         d="M 11.53125,6.09375 C 10.78509,7.1237473 9.274436,7.75 7.90625,7.75 C 7.8855223,7.75 7.8644052,7.7503066 7.84375,7.75 C 7.8654763,10.52518 7.8922963,12.480309 7.921875,15.328125 L 11.40625,15.5 C 11.224896,13.814469 10.650104,11.71678 10.46875,10.03125 C 11.955857,9.2051825 13.390998,11.808595 13.5,11.8125 C 13.992049,11.830128 15.574458,10.73996 15.215307,9.9912493 C 14.65676,8.8268662 13.899193,6.5540372 11.53125,6.09375 z "
         transform="matrix(0.976448,0,0,0.976448,0.26758,0.443924)"
         id="path2762"
         sodipodi:nodetypes="csccccssc" />
      <use
         height="16"
         width="16"
         transform="matrix(-1,0,0,1,16.15833,0)"
         id="use2765"
         xlink:href="#path2762"
         y="0"
         x="0" />
    </g>
    <path
       sodipodi:type="arc"
       style="opacity:1;fill:black;fill-opacity:1;stroke:none;stroke-width:0.45482299;stroke-linecap:butt;stroke-linejoin:miter;stroke-miterlimit:4;stroke-dasharray:none;stroke-dashoffset:0;stroke-opacity:1"
       id="path1872"
       sodipodi:cx="8.46875"
       sodipodi:cy="4.53125"
       sodipodi:rx="3.5"
       sodipodi:ry="3.5"
       d="M 11.96875 4.53125 A 3.5 3.5 0 1 1  4.96875,4.53125 A 3.5 3.5 0 1 1  11.96875 4.53125 z"
       transform="matrix(0.900676,0,0,0.900676,0.3724,-0.616322)" />
  </g>
</svg>
